<svg xmlns="http://www.w3.org/2000/svg" viewBox="0 0 800 440" width="800" height="440" role="img" aria-label="Vertical and horizontal error spread across 7 GCPs per sensor" font-family="Helvetica Neue, Helvetica, Arial, sans-serif">
<rect width="800" height="440" rx="8" fill="#ffffff"/>
<text x="28" y="40" font-size="18" font-weight="700" fill="#000">Error spread across 7 GCPs</text><text x="28" y="62" font-size="13" fill="#666">Max minus min error in meters, with average vertical offset (DZ) zeroed. Lower is better.</text><line x1="64" x2="780" y1="370.0" y2="370.0" stroke="#e8e8e8"/><text x="54" y="374.0" font-size="12" fill="#888" text-anchor="end">0.00</text><line x1="64" x2="780" y1="330.9" y2="330.9" stroke="#e8e8e8"/><text x="54" y="334.9" font-size="12" fill="#888" text-anchor="end">0.02</text><line x1="64" x2="780" y1="291.7" y2="291.7" stroke="#e8e8e8"/><text x="54" y="295.7" font-size="12" fill="#888" text-anchor="end">0.04</text><line x1="64" x2="780" y1="252.6" y2="252.6" stroke="#e8e8e8"/><text x="54" y="256.6" font-size="12" fill="#888" text-anchor="end">0.06</text><line x1="64" x2="780" y1="213.4" y2="213.4" stroke="#e8e8e8"/><text x="54" y="217.4" font-size="12" fill="#888" text-anchor="end">0.08</text><line x1="64" x2="780" y1="174.3" y2="174.3" stroke="#e8e8e8"/><text x="54" y="178.3" font-size="12" fill="#888" text-anchor="end">0.10</text><line x1="64" x2="780" y1="135.1" y2="135.1" stroke="#e8e8e8"/><text x="54" y="139.1" font-size="12" fill="#888" text-anchor="end">0.12</text><line x1="64" x2="780" y1="96.0" y2="96.0" stroke="#e8e8e8"/><text x="54" y="100.0" font-size="12" fill="#888" text-anchor="end">0.14</text><text transform="translate(22 233.0) rotate(-90)" font-size="12" fill="#888" text-anchor="middle">Spread (m)</text><rect x="99.5" y="199.7" width="50" height="170.3" fill="#F2844B"/><text x="124.5" y="191.7" font-size="12" font-weight="700" fill="#000" text-anchor="middle">0.0870</text><text x="124.5" y="388.0" font-size="11" fill="#888" text-anchor="middle">Vert</text><rect x="157.5" y="285.1" width="50" height="84.9" fill="#F2844B" fill-opacity="0.3" stroke="#F2844B" stroke-width="1.5"/><text x="182.5" y="277.1" font-size="12" font-weight="700" fill="#000" text-anchor="middle">0.0434</text><text x="182.5" y="388.0" font-size="11" fill="#888" text-anchor="middle">Horiz</text><text x="153.5" y="418" font-size="14" font-weight="600" fill="#222" text-anchor="middle">Flux H1</text><rect x="278.5" y="116.5" width="50" height="253.5" fill="#4A8CFF"/><text x="303.5" y="108.5" font-size="12" font-weight="700" fill="#000" text-anchor="middle">0.1295</text><text x="303.5" y="388.0" font-size="11" fill="#888" text-anchor="middle">Vert</text><rect x="336.5" y="246.0" width="50" height="124.0" fill="#4A8CFF" fill-opacity="0.3" stroke="#4A8CFF" stroke-width="1.5"/><text x="361.5" y="238.0" font-size="12" font-weight="700" fill="#000" text-anchor="middle">0.0634</text><text x="361.5" y="388.0" font-size="11" fill="#888" text-anchor="middle">Horiz</text><text x="332.5" y="418" font-size="14" font-weight="600" fill="#222" text-anchor="middle">Hovermap ST-X</text><rect x="457.5" y="263.2" width="50" height="106.8" fill="#E5383B"/><text x="482.5" y="255.2" font-size="12" font-weight="700" fill="#000" text-anchor="middle">0.0546</text><text x="482.5" y="388.0" font-size="11" fill="#888" text-anchor="middle">Vert</text><rect x="515.5" y="310.7" width="50" height="59.3" fill="#E5383B" fill-opacity="0.3" stroke="#E5383B" stroke-width="1.5"/><text x="540.5" y="302.7" font-size="12" font-weight="700" fill="#000" text-anchor="middle">0.0303</text><text x="540.5" y="388.0" font-size="11" fill="#888" text-anchor="middle">Horiz</text><text x="511.5" y="418" font-size="14" font-weight="600" fill="#222" text-anchor="middle">Echo One</text><rect x="636.5" y="218.1" width="50" height="151.9" fill="#9E9E9E"/><text x="661.5" y="210.1" font-size="12" font-weight="700" fill="#000" text-anchor="middle">0.0776</text><text x="661.5" y="388.0" font-size="11" fill="#888" text-anchor="middle">Vert</text><rect x="694.5" y="117.3" width="50" height="252.7" fill="#9E9E9E" fill-opacity="0.3" stroke="#9E9E9E" stroke-width="1.5"/><text x="719.5" y="109.3" font-size="12" font-weight="700" fill="#000" text-anchor="middle">0.1291</text><text x="719.5" y="388.0" font-size="11" fill="#888" text-anchor="middle">Horiz</text><text x="690.5" y="418" font-size="14" font-weight="600" fill="#222" text-anchor="middle">TrueView 641</text><rect x="470" y="30" width="12" height="12" fill="#888"/><text x="488" y="41" font-size="12" fill="#666">Vertical (solid)</text><rect x="600" y="30" width="12" height="12" fill="#888" fill-opacity="0.3" stroke="#888" stroke-width="1.5"/><text x="618" y="41" font-size="12" fill="#666">Horizontal (outlined)</text>
</svg>
